<svg width="19" height="21" viewBox="0 0 19 21" fill="none" xmlns="http://www.w3.org/2000/svg">
<path d="M18.7589 8.95807H18.0017V8.9166H9.54117V12.9136H14.8539C14.0788 15.2403 11.9961 16.9106 9.54117 16.9106C6.4263 16.9106 3.90084 14.2261 3.90084 10.9151C3.90084 7.60408 6.4263 4.9196 9.54117 4.9196C10.979 4.9196 12.2871 5.49617 13.2831 6.43796L15.942 3.61159C14.2631 1.94834 12.0173 0.922607 9.54117 0.922607C4.34972 0.922607 0.140625 5.39674 0.140625 10.9151C0.140625 16.4334 4.34972 20.9076 9.54117 20.9076C14.7326 20.9076 18.9417 16.4334 18.9417 10.9151C18.9417 10.2451 18.8769 9.59109 18.7589 8.95807Z" fill="#FFC107"/>
<path d="M9.5412 20.9076C11.9694 20.9076 14.1757 19.9198 15.8438 18.3135L12.9343 15.6965C11.9588 16.4851 10.7668 16.9116 9.5412 16.9106C7.09612 16.9106 5.02001 15.2533 4.23788 12.9406L1.17236 15.4512C2.72815 18.6872 5.88768 20.9076 9.5412 20.9076Z" fill="#4CAF50"/>
<path d="M18.7587 8.95809H18.0015V8.91663H9.54102V12.9136H14.8537C14.483 14.021 13.8151 14.9886 12.9327 15.697L12.9341 15.696L15.8436 18.3131C15.6377 18.5119 18.9416 15.9114 18.9416 10.9151C18.9416 10.2451 18.8767 9.59112 18.7587 8.95809Z" fill="#1976D2"/>
<path d="M1.22461 6.26409L4.31316 8.67178C5.14887 6.47243 7.1728 4.9196 9.54127 4.9196C10.9791 4.9196 12.2872 5.49617 13.2832 6.43796L15.9421 3.61159C14.2632 1.94834 12.0174 0.922607 9.54127 0.922607C5.93052 0.922607 2.7992 3.08948 1.22461 6.26409Z" fill="#FF3D00"/>
</svg>
